<?xml version="1.0" encoding="utf-8"?>
<!-- Generator: Adobe Illustrator 19.0.0, SVG Export Plug-In . SVG Version: 6.00 Build 0)  -->
<svg version="1.1" id="layer" xmlns="http://www.w3.org/2000/svg" xmlns:xlink="http://www.w3.org/1999/xlink" x="0px" y="0px"
	 viewBox="-153 -46 652 652" style="enable-background:new -153 -46 652 652;" xml:space="preserve">
<style type="text/css">
	.st0{fill:#ED7700;}
	.st1{fill:#C60026;}
</style>
<g>
	<path class="st0" d="M358.8,327.3h-6.8c-0.4,0-0.6,0.3-1,0.7c-0.5,0.7-2.9,3.9-8.9,3.9c-7.2,0-10.4-3.7-11-11.1h27.6
		c0.5,0,0.8-0.3,1-0.8l1.3-4.4c0-10.6-6-22.3-21.1-22.3c-14.6,0-21.1,11-21.1,24.6c0,13.7,6.9,24.6,23.5,24.6
		c13.4,0,17.7-7.7,18.8-10l-1.3-4.4C359.6,327.6,359.3,327.3,358.8,327.3 M339.9,303.9c5.3,0,7.9,3.3,8.3,8.2h-16.7
		C332,307.3,334.6,303.9,339.9,303.9 M315.4,311v29.3c0,0.5-0.4,0.9-0.9,0.9h-10.4c-0.5,0-0.9-0.3-0.9-0.9v-28.4c0-4.4-1.8-8-6.9-8
		c-5.9,0-10.1,3.2-10.1,11.2v8.5v16.7c0,0.5-0.4,0.9-0.9,0.9h-10.3c-0.5,0-0.9-0.3-0.9-0.9v-44.7c0-0.5,0.4-0.9,0.9-0.9h8.2
		c0.5,0,0.8,0.3,1,0.8l1.3,4.4c2.5-3.8,6.9-6.5,13.6-6.5C309,293.4,315.4,299.2,315.4,311 M257,281.6c0-0.5,0.3-0.9,0.9-0.9h10.3
		c0.5,0,0.9,0.3,0.9,0.9v8.6c0,0.5-0.3,0.9-0.9,0.9h-10.3c-0.5,0-0.9-0.3-0.9-0.9V281.6z M257,340.3c0,0.5,0.3,0.9,0.9,0.9h10.3
		c0.5,0,0.9-0.3,0.9-0.9v-44.7c0-0.5-0.3-0.9-0.9-0.9h-10.3c-0.5,0-0.9,0.4-0.9,0.9V340.3z M224.2,318c0,9.9,4,14,11,14
		c5.3,0,7.5-3.2,8-3.9c0.3-0.4,0.5-0.7,1-0.7h6.8c0.5,0,0.8,0.3,1,0.8l1.3,4.4c-1.4,2.9-5.3,10-17.9,10c-16.3,0-23.5-9.7-23.5-24.6
		c0-14.9,7.2-24.6,23.5-24.6c12.6,0,16.5,7.1,17.9,10l-1.3,4.4c-0.2,0.5-0.4,0.8-1,0.8h-6.8c-0.4,0-0.6-0.3-1-0.7
		c-0.5-0.7-2.7-3.9-8-3.9C228.1,303.9,224.2,308,224.2,318 M196.5,281.6c0-0.5,0.3-0.9,0.9-0.9h10.3c0.5,0,0.9,0.3,0.9,0.9v8.6
		c0,0.5-0.4,0.9-0.9,0.9h-10.3c-0.5,0-0.9-0.3-0.9-0.9V281.6z M196.5,340.3c0,0.5,0.3,0.9,0.9,0.9h10.3c0.5,0,0.9-0.3,0.9-0.9v-44.7
		c0-0.5-0.4-0.9-0.9-0.9h-10.3c-0.5,0-0.9,0.4-0.9,0.9V340.3z M191.2,280.7h-10.3c-0.5,0-0.9,0.3-0.9,0.9v17.2
		c-3.2-3.2-7.6-5.3-13.1-5.3c-13.7,0-20.4,10.8-20.4,24.6c0,13.8,6.8,24.6,20.4,24.6c6,0,10.6-2.5,13.9-6.2l1.2,4.1
		c0.2,0.5,0.4,0.8,1,0.8h8.2c0.5,0,0.9-0.3,0.9-0.9v-58.8C192,281,191.7,280.7,191.2,280.7 M169.3,332c-7.4,0-10.6-5.3-10.6-14
		c0-8.8,3.2-14,10.6-14c6.9,0,10.6,5.2,10.6,14v0C179.9,326.7,176.2,332,169.3,332 M141.3,327.3h-6.8c-0.4,0-0.6,0.3-1,0.7
		c-0.5,0.7-2.9,3.9-8.9,3.9c-7.2,0-10.4-3.7-11-11.1h27.6c0.5,0,0.8-0.3,1-0.8l1.3-4.4c0-10.6-6.1-22.3-21.1-22.3
		c-14.6,0-21.1,11-21.1,24.6c0,13.7,6.9,24.6,23.5,24.6c13.4,0,17.7-7.7,18.8-10l-1.3-4.4C142.1,327.6,141.9,327.3,141.3,327.3
		 M122.5,303.9c5.3,0,7.9,3.3,8.3,8.2h-16.7C114.6,307.3,117.1,303.9,122.5,303.9 M97.3,281.6v58.8c0,0.5-0.3,0.9-0.9,0.9h-9.3
		c-0.5,0-0.8-0.3-1-0.8l-1.3-4.4v-29.3l-14,33.7c-0.2,0.5-0.4,0.8-1,0.8h-4.6v0h-4.6c-0.6,0-0.9-0.3-1-0.8l-14-33.7V336l-1.3,4.4
		c-0.2,0.5-0.4,0.8-1,0.8H34c-0.5,0-0.9-0.3-0.9-0.9v-58.8c0-0.5,0.3-0.9,0.9-0.9h7.9v0h4.6c0.6,0,0.9,0.3,1.1,0.8L65.2,324
		l17.7-42.6c0.2-0.5,0.4-0.8,1-0.8h4.6h7.9C96.9,280.7,97.3,281,97.3,281.6"/>
	<path class="st1" d="M468.3,269.1c0,0.5-0.4,0.9-0.9,0.9h-8.9c-0.5,0-0.8-0.3-1-0.8l-1.3-4.4v-54.5c0-0.5,0.4-0.9,0.9-0.9h10.3
		c0.5,0,0.9,0.3,0.9,0.9V269.1z M451.5,210.4c0-0.5-0.4-0.9-0.9-0.9h-10.3c-0.5,0-0.9,0.3-0.9,0.9v54.5l1.3,4.4
		c0.2,0.5,0.4,0.8,1,0.8h8.9c0.5,0,0.9-0.3,0.9-0.9V210.4z M434.6,256.9l1.3,4.4c-1,2.3-5.3,10-18.8,10c-16.6,0-23.5-10.9-23.5-24.6
		c0-13.6,6.6-24.6,21.1-24.6c15.1,0,21.1,11.7,21.1,22.3l-1.3,4.4c-0.2,0.5-0.4,0.8-1,0.8H406c0.5,7.5,3.8,11.1,11,11.1
		c6,0,8.3-3.2,8.9-4c0.3-0.4,0.5-0.7,1-0.7h6.8C434.2,256.2,434.5,256.4,434.6,256.9 M406.5,240.9h16.7c-0.4-4.8-3-8.2-8.3-8.2
		C409.5,232.7,406.9,236.1,406.5,240.9 M373.8,222.2c-6.7,0-11.1,2.7-13.6,6.5l-1.3-4.4c-0.2-0.5-0.4-0.8-1-0.8h-8.2
		c-0.5,0-0.9,0.3-0.9,0.9v44.7c0,0.5,0.3,0.9,0.9,0.9H360c0.5,0,0.9-0.3,0.9-0.9v-16.7V244c0-8.1,4.2-11.2,10.1-11.2
		c5.2,0,6.9,3.6,6.9,8v28.4c0,0.5,0.3,0.9,0.9,0.9h10.3c0.5,0,0.9-0.3,0.9-0.9v-29.3C390,228,383.6,222.2,373.8,222.2 M343.9,223.5
		h-4.1c-5.5,0-9.7,1.7-12.5,5.2l-1.3-4.4c-0.2-0.5-0.4-0.8-1-0.8h-8.2c-0.5,0-0.9,0.3-0.9,0.9v44.7c0,0.5,0.3,0.9,0.9,0.9h10.3
		c0.5,0,0.9-0.3,0.9-0.9v-15.3v-8.1c0-8.1,4.7-11.2,10.5-11.2h5.4c0.5,0,0.9-0.4,0.9-0.9v-9.2C344.8,223.9,344.5,223.5,343.9,223.5
		 M312.5,246.8c0,13.8-5.7,24.6-22,24.6c-16.3,0-22-10.8-22-24.6c0-13.8,5.7-24.6,22-24.6C306.8,222.2,312.5,233,312.5,246.8
		 M300.2,246.8c0-8.8-2.8-14-9.7-14c-6.9,0-9.7,5.3-9.7,14s2.8,14,9.7,14C297.4,260.8,300.2,255.5,300.2,246.8 M212,239.8
		c0,19.7,10.9,31.6,28.9,31.6c17.1,0,23.6-8.8,25.5-15l-1.3-4.4c-0.2-0.5-0.4-0.8-1-0.8h-8.3c-0.5,0-0.7,0.3-0.9,0.7
		c-0.9,2.2-3.4,8.1-13.5,8.1c-11.1,0-16.4-6.4-16.4-20.2c0-13.8,5.3-20.2,16.4-20.2c10.1,0,12.6,5.9,13.5,8.1
		c0.2,0.4,0.3,0.7,0.9,0.7h8.3c0.5,0,0.8-0.3,1-0.8l1.3-4.4c-1.9-6.2-8.4-15-25.5-15C222.9,208.2,212,220,212,239.8 M193.9,210.4
		c0-0.5-0.4-0.9-0.9-0.9h-10.3c-0.5,0-0.9,0.3-0.9,0.9v54.5l1.3,4.4c0.2,0.5,0.4,0.8,1,0.8h8.9c0.5,0,0.9-0.3,0.9-0.9V210.4z
		 M177.2,210.4c0-0.5-0.3-0.9-0.9-0.9H166c-0.5,0-0.9,0.3-0.9,0.9v54.5l1.3,4.4c0.2,0.5,0.4,0.8,1,0.8h8.9c0.5,0,0.9-0.3,0.9-0.9
		V210.4z M148.4,269.1c0,0.5,0.4,0.9,0.9,0.9h10.3c0.5,0,0.9-0.3,0.9-0.9v-44.7c0-0.5-0.3-0.9-0.9-0.9h-10.3c-0.5,0-0.9,0.3-0.9,0.9
		V269.1z M148.4,210.4c0-0.5,0.4-0.9,0.9-0.9h10.3c0.5,0,0.9,0.3,0.9,0.9v8.6c0,0.5-0.3,0.9-0.9,0.9h-10.3c-0.5,0-0.9-0.3-0.9-0.9
		V210.4z M143.3,256.9l1.3,4.4c-1,2.3-5.3,10-18.8,10c-16.6,0-23.5-10.9-23.5-24.6c0-13.6,6.6-24.6,21.1-24.6
		c15.1,0,21.1,11.7,21.1,22.3l-1.3,4.4c-0.2,0.5-0.4,0.8-1,0.8h-27.6c0.5,7.5,3.8,11.1,11,11.1c6,0,8.3-3.2,8.9-4
		c0.4-0.4,0.5-0.7,1-0.7h6.8C142.8,256.2,143.1,256.4,143.3,256.9 M115.1,240.9h16.7c-0.4-4.8-3-8.2-8.3-8.2
		C118.1,232.7,115.5,236.1,115.1,240.9 M104.7,210.3c-0.1-0.5-0.4-0.8-1-0.8h-9.7c-0.5,0-0.8,0.3-0.9,0.8l-9.2,40l-11.8-40
		c-0.1-0.4-0.3-0.8-0.9-0.8h-6.1H59c-0.5,0-0.8,0.3-0.9,0.8l-11.8,40l-9.2-40c-0.1-0.4-0.3-0.8-0.9-0.8h-9.7c-0.5,0-0.9,0.3-1,0.8
		l-0.6,4.4l13.8,54.6c0.1,0.4,0.3,0.8,0.9,0.8h12.6c0.5,0,0.8-0.3,0.9-0.8l12-41.1l12,41.1c0.1,0.4,0.3,0.8,0.9,0.8h12.6
		c0.5,0,0.8-0.3,0.9-0.8l13.8-54.6L104.7,210.3z"/>
	<path class="st1" d="M-75.4,297.8l0-1.7c0.5,0,2.1,0,3.4-0.1l0.7,0c0.6,0,1.3-0.1,2.2-0.2l1.3-0.1c0.3,0,0.6,0,0.9,0l0,1.7
		c-0.2,0-0.4,0-0.7,0l-1.3,0.1c-0.9,0.1-1.6,0.2-2.3,0.2l-0.7,0C-73.3,297.7-74.9,297.7-75.4,297.8 M-75.4,292.6
		c0.5,0,2.1,0,3.4-0.1l0.6,0c0.6,0,1.4-0.1,2.2-0.2c0.4,0,0.9-0.1,1.4-0.1c0.2,0,0.5,0,0.7,0l0-1.7c-0.3,0-0.6,0-0.9,0
		c-0.5,0-1,0.1-1.4,0.1c-0.8,0.1-1.4,0.2-2,0.2l-0.7,0c-1.3,0-2.8,0.1-3.4,0.1L-75.4,292.6 M-75.4,287.5c0.3,0,1.2,0,2.1-0.1l1.9,0
		c0.7,0,1.4-0.1,2.3-0.2l1.2-0.1c0.2,0,0.5,0,0.7,0l0.1-1.7c-0.3,0-0.6,0-0.9,0l-1.3,0.1c-0.8,0.1-1.6,0.2-2.2,0.2l-1.9,0.1
		c-0.9,0-1.8,0-2.1,0.1L-75.4,287.5 M-71.4,282.2c0.7,0,1.4-0.1,2.3-0.2l1.3-0.1c0.2,0,0.5,0,0.7,0l0-1.7c-0.3,0-0.6,0-0.9,0
		l-1.3,0.1c-0.8,0.1-1.5,0.2-2.1,0.2l-4,0.1l0,1.7L-71.4,282.2z M-50.2,297.8l0-1.7c-0.5,0-2.1,0-3.4-0.1l-0.7,0
		c-0.6,0-1.3-0.1-2.2-0.2l-1.3-0.1c-0.3,0-0.6,0-0.9,0l0,1.7c0.2,0,0.4,0,0.7,0l1.3,0.1c0.9,0.1,1.6,0.2,2.3,0.2l0.7,0
		C-52.3,297.7-50.7,297.7-50.2,297.8 M-50.2,292.6l0-1.7c-0.5,0-2.1,0-3.4-0.1l-0.7,0c-0.6,0-1.3-0.1-2-0.2c-0.5,0-0.9-0.1-1.4-0.1
		c-0.3,0-0.6-0.1-0.9,0l0,1.7c0.2,0,0.4,0,0.7,0c0.5,0,1,0.1,1.4,0.1c0.8,0.1,1.6,0.2,2.2,0.2l0.6,0
		C-52.3,292.6-50.7,292.6-50.2,292.6 M-50.2,287.5l0-1.7c-0.3,0-1.2,0-2.1-0.1l-1.9-0.1c-0.6,0-1.4-0.1-2.2-0.2l-1.3-0.1
		c-0.3,0-0.6,0-0.9,0l0.1,1.7c0.2,0,0.4,0,0.7,0l1.2,0.1c0.9,0.1,1.7,0.2,2.3,0.2l1.9,0C-51.4,287.4-50.6,287.5-50.2,287.5
		 M-50.2,282.3l0-1.7l-4-0.1c-0.6,0-1.3-0.1-2.1-0.2l-1.3-0.1c-0.3,0-0.6-0.1-0.9,0l0,1.7c0.2,0,0.4,0,0.7,0l1.3,0.1
		c0.9,0.1,1.6,0.2,2.3,0.2L-50.2,282.3z M-38.4,247l0-1.3H-57l0,1.3c0,3.3,0,10.9,0,11.2c0.1,1.4,1,2.6,2.8,3.9
		c2.2,1.5,5.5,3.4,5.7,3.5l0.6,0.4l0.6-0.3c0,0,3.7-2,6-3.6c1.8-1.2,2.6-2.4,2.7-3.9C-38.4,257.9-38.4,253.9-38.4,247 M-54.4,248.3
		H-41l0,2v3.7l-6.7-4.9v0l0,0l-6.6,4.9v-3.6V248.3z M-41,258.1c0,0.5-0.5,1.1-1.5,1.8c-1.4,1-3.5,2.2-5,3l-0.2,0.1l-0.2-0.1
		c-0.7-0.4-3.1-1.8-4.8-3c-1-0.7-1.6-1.3-1.7-1.8h0V257l6.6-4.9l6.7,4.9L-41,258.1L-41,258.1z M-68.3,247v-1.3h-18.5l0,1.3
		c0,3.3,0,10.9,0,11.2c0.1,1.4,1,2.6,2.8,3.9c2.2,1.5,5.5,3.4,5.7,3.5l0.6,0.4l0.6-0.3c0,0,3.7-2,6-3.6c1.8-1.2,2.6-2.4,2.7-3.9
		C-68.3,257.9-68.3,253.9-68.3,247 M-70.8,248.3l0,3.4h-13.4v-3.4H-70.8z M-70.8,258.1c0,0.5-0.5,1.1-1.5,1.8c-1.4,1-3.5,2.2-5,3
		l-0.2,0.1l-0.2-0.1c-0.7-0.4-3.1-1.8-4.8-3c-1-0.7-1.7-1.4-1.7-1.9c0-0.2,0-1.5,0-3.2v-0.6h13.4v0.1
		C-70.8,255.6-70.8,257.8-70.8,258.1 M-30.1,239.9l-65.4,0l0,43.9c0,24.4,30.8,39,32.1,39.5l0.6,0.3l0.6-0.3
		c1.3-0.6,32-15.3,32-38.8V239.9z M-92.3,243.1h59l0,24.4h-59V243.1z M-64.9,276.7c0.3,0.1,0.5,0.2,0.7,0.3v24.5l-0.1-0.1
		c-0.5-0.2-1.1-0.3-1.8-0.4c-1.9,0-3.3,0.1-4.8,0.3c-1.5,0.1-3,0.3-5.2,0.3c-0.5,0-0.9,0-1.3,0c-0.4,0-0.8,0-1.1,0l-0.3,0v-24.4h0.9
		c0.8,0,1.8,0,3,0c1.2,0,2.6-0.2,4.1-0.3c0.8-0.1,1.7-0.2,2.8-0.3c0.3,0,0.7-0.1,1.1-0.1C-65.8,276.6-65,276.7-64.9,276.7l0,0.1
		L-64.9,276.7z M-61.5,277c0.2-0.1,0.5-0.2,0.7-0.3c0,0,0.9-0.2,2-0.2c0.4,0,0.8,0,1.1,0.1c0.9,0.1,1.8,0.2,2.6,0.3l0.1,0
		c1.5,0.1,2.8,0.3,4.1,0.3c1.1,0,2.1,0,2.9,0h0.4c0.1,0,0.2,0,0.2,0l0.3,0l0,24.4l-0.3,0c-0.3,0-0.7,0-1.1,0c-0.4,0-0.9,0-1.3,0
		c-2.2,0-3.7-0.2-5.2-0.3c-1.5-0.1-2.9-0.3-4.8-0.3h0c-0.6,0-1.2,0.1-1.7,0.3l-0.1,0.1V277z M-92.3,283.8v-13.2h28.2l0,3.7l-0.2,0
		c0,0-1.1-0.2-2.6-0.2c-0.5,0-0.9,0-1.4,0.1c-1,0.1-1.8,0.2-2.7,0.3l-0.2,0c-1.4,0.2-2.7,0.3-3.7,0.3c-1,0-1.9,0-2.7,0h-0.8h0
		c-0.6,0-1.2,0-1.7,0l-1.2,0v4.6h-3.1v2.5h3.1v5.9h-3.1v2.5h3.1v5.8h-3.1v2.5h3.1l0,5.5l1.2,0.1c0.2,0,1.9,0.1,4.2,0.1
		c2.3-0.1,4-0.2,5.4-0.3c1.5-0.1,2.8-0.2,4.5-0.2c0.7,0,1,0.2,1.4,0.7c0.1,0.1,0.3,0.3,0.5,0.5l0,14.6
		C-70.8,316-92.3,302.8-92.3,283.8 M-61.4,319.5l0-14.7c0.1-0.1,0.3-0.2,0.4-0.4c0.4-0.4,0.6-0.7,1.4-0.7c1.8,0.1,3.1,0.1,4.6,0.2
		c1.4,0.1,3.1,0.3,5.4,0.3c2.2,0,4,0,4.1-0.1l1.2-0.1v-5.5h3.2v-2.5h-3.2v-5.8h3.2v-2.5h-3.2v-5.9h3.2v-2.5h-3.2v-4.6l-1.3,0
		c-0.5,0-1,0-1.7,0h-0.4c-0.9,0-1.9,0-3.1,0c-1.1,0-2.3-0.1-3.9-0.3l-0.1,0c-0.8-0.1-1.7-0.2-2.6-0.3c-0.5-0.1-0.9-0.1-1.4-0.1
		c-1.5,0-2.6,0.2-2.6,0.2c0,0-0.1,0-0.1,0l-0.1,0l0-3.7h28.2v14C-33.3,302.8-54.8,316-61.4,319.5 M-62.8,326.8
		c-28.4,0-51.4-23.1-51.4-51.5c0-28.4,23.1-51.5,51.4-51.5c28.4,0,51.5,23.1,51.5,51.5C-11.3,303.7-34.4,326.8-62.8,326.8
		 M-62.8,227.1c-26.6,0-48.3,21.7-48.3,48.3c0,26.6,21.7,48.3,48.3,48.3c26.6,0,48.3-21.7,48.3-48.3
		C-14.5,248.8-36.1,227.1-62.8,227.1 M-116.3,306.8c-0.4-0.5-0.8-1-1.1-1.6c-1.2-2.4-0.8-4.7,1.7-6c2.6-1.3,4.8-0.4,6.1,2.2
		c0.2,0.5,0.5,1.2,0.5,1.9l-1.3,0.5c0-0.7-0.1-1.3-0.4-1.8c-0.8-1.6-2.4-1.9-4-1.2c-1.5,0.8-2.2,2.3-1.4,3.9
		c0.3,0.6,0.8,1.2,1.1,1.5L-116.3,306.8z M-105.9,307.4c-1.6-2.2-3.8-2.3-5.9-0.8c-2.1,1.5-2.7,3.7-1.2,5.9c1.5,2.2,3.9,2.3,5.9,0.8
		C-104.9,311.8-104.3,309.6-105.9,307.4 M-111.9,311.7c-1-1.4-0.1-2.8,1.1-3.7c1.2-0.9,2.8-1.2,3.8,0.2c1,1.4,0.1,2.8-1.1,3.7
		C-109.2,312.7-110.9,313.1-111.9,311.7 M-108.4,318l1.2,1.2l2.5-2.5l0.4,0.4c0.5,0.5,0.5,0.8,0.2,1.4l-1.1,2.6l1.3,1.3l1.4-3.3
		c0.1-0.4,0.3-0.9,0-1.2l0,0c0.9,0.7,1.9,0.6,2.6-0.1c1.7-1.6,0.1-3.1-1.2-4.4l-1.3-1.3L-108.4,318z M-102.2,314.2l0.4,0.4
		c0.6,0.6,1.2,1.3,0.5,2c-0.7,0.7-1.5,0.1-2.1-0.5l-0.4-0.4L-102.2,314.2z M-101.9,324.2l1.3,1l3.7-5.1l0,0l-1.1,7l1.7,1.2l5-6.8
		l-1.3-1l-3.7,5.1l0,0l1.2-7l-1.7-1.2L-101.9,324.2z M-93.4,330.1l4.4,2.3l0.6-1.2l-2.9-1.5l1.1-2.1l2.6,1.4l0.6-1.2l-2.7-1.4l1-1.8
		l2.9,1.5l0.6-1.2l-4.4-2.3L-93.4,330.1z M-86.3,333.6l4.6,1.8l0.5-1.2l-3.1-1.2l2.5-6.6l-1.6-0.6L-86.3,333.6z M-79.5,336l4.8,1.2
		l0.3-1.3l-3.2-0.8l1.7-6.9l-1.6-0.4L-79.5,336z M-68.2,335.1c-0.1,2.3,1.2,3.2,3.3,3.3c2.2,0.1,3.5-0.8,3.5-3l0.2-5.4l-1.7-0.1
		l-0.2,4.8c0,1.4-0.5,2.4-1.8,2.3c-1.3-0.1-1.7-1-1.7-2.4l0.2-4.8l-1.7-0.1L-68.2,335.1z M-57.9,338.3l1.6-0.2l-0.8-6.2h0l4,5.8
		l2-0.3l-1.1-8.3l-1.6,0.2l0.8,6.2l0,0l-4-5.8l-2,0.3L-57.9,338.3z M-48.2,336.7l1.6-0.4l-2-8.1l-1.6,0.4L-48.2,336.7z M-41.8,334.8
		l1.9-0.7l-0.3-8.9l-1.6,0.6l0.3,6.9h0l-4.3-5.4l-1.7,0.6L-41.8,334.8z M-34.9,331.9l4.4-2.4l-0.6-1.2l-2.9,1.6l-1.1-2.1l2.6-1.4
		l-0.6-1.2l-2.6,1.4l-1-1.8l2.9-1.6l-0.6-1.2l-4.4,2.4L-34.9,331.9z M-28,328l1.4-1l-2.1-2.8l0.4-0.3c0.6-0.4,0.9-0.4,1.5,0l2.4,1.5
		l1.5-1.1l-3-1.8c-0.3-0.2-0.8-0.4-1.2-0.2l0,0c0.8-0.8,0.8-1.8,0.2-2.6c-1.4-1.9-3.1-0.6-4.5,0.5l-1.5,1.1L-28,328z M-30.9,321.3
		l0.4-0.3c0.7-0.5,1.5-1,2.1-0.2c0.6,0.8-0.1,1.5-0.7,2l-0.4,0.3L-30.9,321.3z M-23.5,313.4c-0.6,0.3-1.1,0.7-1.7,1.2
		c-1.1,1-1.6,2.5-0.3,3.9c1.9,2,4.1-1,5.2,0.1c0.5,0.6,0.1,1.4-0.3,1.8c-0.5,0.5-1.1,0.8-1.7,1l0.9,1.2c0.7-0.4,1.1-0.6,1.8-1.3
		c1.2-1.2,1.8-2.7,0.5-4c-2-2-4.2,1-5.2-0.1c-0.6-0.7-0.3-1.4,0.1-1.8c0.4-0.4,0.9-0.7,1.5-0.9L-23.5,313.4z M-15.8,317.1l1.1-1.3
		l-6.4-5.4l-1.1,1.3L-15.8,317.1z M-12.1,312.4l1-1.4l-5.8-4l1.4-2l-1.1-0.8l-3.7,5.3l1.1,0.8l1.4-2L-12.1,312.4z M-7.5,304.9
		l0.8-1.5l-3-1.5l-3.2-5l-0.8,1.6l2.2,3.4l-4,0.2l-0.9,1.8l5.9-0.5L-7.5,304.9z M-115,290.1l-0.5-2.2l-7.1-0.1v0l6.5-2.9l-0.4-2.2
		l-9-0.5l0.3,1.7l7.2,0.2v0l-6.5,2.9l0.5,2.3l7.1,0.1v0l-6.5,3l0.4,1.8L-115,290.1z M-116.8,279.3l-0.1-5.2l-1.4,0l0.1,3.4l-2.4,0.1
		l-0.1-3.1l-1.4,0l0.1,3.1l-2.1,0l-0.1-3.4l-1.4,0l0.1,5.1L-116.8,279.3z M-125.5,272l8.7,0.6l0.1-1.7l-8.7-0.6L-125.5,272z
		 M-116.5,269l0.8-5.1l-1.4-0.2l-0.5,3.3l-7.3-1.1l-0.3,1.7L-116.5,269z M-115.4,263l1.4-4.9l-1.3-0.4l-0.9,3.3l-7.1-2l-0.5,1.7
		L-115.4,263z M-111.1,247.5c0,0.5-0.2,1.3-0.5,1.9c-0.8,1.7-2.5,2-4.1,1.3c-1.6-0.8-2.3-2.4-1.5-4c0.3-0.6,0.6-1.1,1.2-1.5
		l-1.3-0.8c-0.5,0.5-0.9,1.1-1.2,1.6c-1.3,2.6-0.6,5,2,6.4c2.6,1.3,4.8,0.2,6-2.3c0.3-0.6,0.5-1.3,0.6-1.9L-111.1,247.5z
		 M-113.9,238.8c-1.6,2.3-1,4.5,1.1,6.1c2.2,1.6,4.5,1.5,6.2-0.8c1.6-2.2,0.9-4.6-1.2-6.1C-110,236.4-112.4,236.6-113.9,238.8
		 M-107.7,243.3c-1,1.5-2.7,1.1-4,0.1c-1.2-0.9-2.1-2.4-1.1-3.8c1-1.4,2.7-1.1,4-0.2C-107.6,240.4-106.7,241.8-107.7,243.3
		 M-103.3,239.5l1.2-1.2l-2.6-2.5l0.4-0.4c0.5-0.5,0.9-0.5,1.5-0.2l2.7,1.2l1.4-1.4l-3.4-1.4c-0.4-0.1-0.9-0.3-1.3,0l0,0
		c0.7-0.9,0.6-2-0.2-2.7c-1.7-1.7-3.3-0.1-4.6,1.3l-1.3,1.3L-103.3,239.5z M-107.3,233.1l0.4-0.4c0.6-0.6,1.4-1.2,2.1-0.5
		c0.8,0.8,0.2,1.6-0.4,2.2l-0.4,0.4L-107.3,233.1z M-97.9,234.1l1.3-1l-3.9-5.2l0,0l6.6,3.2l1.7-1.3l-5.2-7l-1.3,1l3.9,5.2l0,0
		l-6.5-3.3l-1.7,1.3L-97.9,234.1z M-90.4,228.9l4.6-2.4l-0.7-1.2l-3,1.6l-1.2-2.2l2.7-1.5l-0.7-1.2l-2.7,1.5l-1-1.9l3-1.6l-0.7-1.2
		l-4.5,2.4L-90.4,228.9z M-84.3,225.8l4.8-1.9l-0.5-1.3l-3.2,1.2l-2.7-6.8l-1.6,0.6L-84.3,225.8z M-78.5,223.7l5-1.3l-0.3-1.3
		l-3.3,0.9l-1.9-7.1l-1.7,0.4L-78.5,223.7z M-69.1,221.5l1.7,0l-0.2-7.2l0,0l2.5,7.1l1.7,0l2.2-7.3h0l0.2,7.2l1.7,0l-0.2-8.7
		l-2.8,0.1l-1.9,6.7h0l-2.2-6.5l-2.8,0.1L-69.1,221.5z M-57.4,221.6l5.1,0.7l0.2-1.4l-3.4-0.5l0.3-2.4l3.1,0.4l0.2-1.4l-3.1-0.4
		l0.3-2.1l3.4,0.5l0.2-1.4l-5.1-0.7L-57.4,221.6z M-50.6,222.7l2.3,0.7c2.6,0.8,5.1,0.6,6.1-2.7c1-3.3-1-4.8-3.6-5.6l-2.3-0.7
		L-50.6,222.7z M-46.8,216.1l0.9,0.3c1.4,0.4,2.4,1.9,1.9,3.7c-0.5,1.8-2.2,2.5-3.6,2l-0.9-0.3L-46.8,216.1z M-42.3,225.4l1.6,0.7
		l3.4-8l-1.6-0.7L-42.3,225.4z M-32.7,228.5c-0.5,0-1.2-0.3-1.8-0.6c-1.6-0.9-1.9-2.6-1.1-4.2c0.9-1.6,2.5-2.2,4.1-1.3
		c0.5,0.3,1,0.7,1.4,1.3l0.8-1.2c-0.4-0.5-1-1-1.5-1.3c-2.6-1.4-5-0.9-6.4,1.7c-1.4,2.6-0.4,4.8,2.1,6.1c0.6,0.3,1.2,0.5,1.9,0.7
		L-32.7,228.5z M-33.1,230l1.4,1.1l1.8-1.1l2.8,2.2l-0.6,2l1.5,1.2l2.6-9l-1.6-1.2L-33.1,230z M-26.6,230.8l-2-1.6l3.2-2.1l0,0
		L-26.6,230.8z M-25.5,236.2l3.6,3.7l1-1l-2.4-2.4l5.3-5.1l-1.2-1.3L-25.5,236.2z M-14.3,247.8c-0.4-0.2-1-0.8-1.4-1.4
		c-1-1.6-0.5-3.2,1-4.2c1.5-1,3.3-0.8,4.2,0.7c0.3,0.5,0.6,1.1,0.7,1.8l1.3-0.7c-0.1-0.7-0.5-1.4-0.8-1.8c-1.6-2.5-4-3.1-6.5-1.4
		c-2.5,1.6-2.6,4-1,6.4c0.4,0.6,0.8,1.1,1.3,1.5L-14.3,247.8z M-5.4,249.6c-1.1-2.5-3.4-3.1-5.8-2c-2.4,1.1-3.5,3.2-2.4,5.8
		c1.1,2.5,3.5,3.1,5.9,2C-5.3,254.3-4.2,252.1-5.4,249.6 M-12.3,252.7c-0.7-1.6,0.4-2.9,1.9-3.5c1.4-0.6,3.1-0.6,3.8,1
		c0.7,1.6-0.4,2.9-1.8,3.5C-9.9,254.3-11.6,254.4-12.3,252.7 M-11.3,258.6l1.4,4.9l1.3-0.4l-0.9-3.3l7.1-2l-0.5-1.7L-11.3,258.6z
		 M-9.7,264.6l0.8,5.1l1.4-0.2l-0.5-3.3l7.2-1.2l-0.3-1.7L-9.7,264.6z M-8.8,270.8l0.2,5.2l1.4-0.1l-0.1-3.4l2.4-0.1l0.1,3.1
		l1.4-0.1l-0.1-3.1l2.2-0.1l0.1,3.4l1.4-0.1l-0.2-5.1L-8.8,270.8z M-0.9,285.4c0.3-0.7,0.5-1.5,0.6-2.5c0.3-2.9-1.2-4.9-4.1-5.2
		c-2.9-0.3-4.5,1.5-4.8,4.3c-0.1,0.9,0,1.9,0.2,2.8l4.7,0.5l0.4-3.5l-1.4-0.1l-0.2,1.8l-2.3-0.2c0-0.3-0.1-0.7,0-1.2
		c0.2-1.8,1.6-2.8,3.4-2.6c1.8,0.2,3,1.4,2.8,3.5c-0.1,0.7-0.3,1.5-0.7,2.2L-0.9,285.4z M-9.7,286.5l-1.3,5l1.3,0.3l0.8-3.3l2.4,0.6
		l-0.8,3l1.3,0.3l0.8-3l2.1,0.5l-0.8,3.3l1.3,0.3l1.3-5L-9.7,286.5z M-62.8,344.4c-38,0-69-31-69-69s30.9-69,69-69
		c38,0,69,30.9,69,69S-24.7,344.4-62.8,344.4 M-62.8,209.5c-36.3,0-65.8,29.5-65.8,65.8s29.5,65.8,65.8,65.8
		c36.3,0,65.8-29.5,65.8-65.8S-26.5,209.5-62.8,209.5"/>
</g>
</svg>
